<?xml version="1.0" encoding="UTF-8"?><svg xmlns="http://www.w3.org/2000/svg" viewBox="0 0 712.42 467.12"><defs><style>.d{fill:#fff;}</style></defs><g id="a"/><g id="b"><g id="c"><g><path class="d" d="M0,388.04v-49.65H18.58c4.21,0,7.83,.67,10.85,2.02,3.03,1.35,5.36,3.29,6.99,5.82,1.63,2.53,2.45,5.59,2.45,9.19s-.82,6.51-2.45,9.04c-1.63,2.53-3.96,4.48-6.99,5.85-3.03,1.37-6.64,2.06-10.85,2.06H2.91l2.34-2.48v18.16H0Zm5.25-17.73l-2.34-2.55h15.53c4.97,0,8.74-1.08,11.31-3.23,2.58-2.15,3.87-5.19,3.87-9.11s-1.29-7.04-3.87-9.22c-2.58-2.17-6.35-3.26-11.31-3.26H2.91l2.34-2.48v29.86Z"/><path class="d" d="M45.11,388.04l22.7-49.65h5.18l22.7,49.65h-5.53l-20.85-46.6h2.13l-20.85,46.6h-5.46Zm8.94-13.26l1.56-4.26h28.87l1.56,4.26h-31.99Z"/><path class="d" d="M117.96,388.04l-16.74-49.65h5.39l15.68,46.74h-2.7l16.17-46.74h4.82l15.96,46.74h-2.55l15.82-46.74h5.04l-16.74,49.65h-5.53l-15.25-44.33h1.42l-15.32,44.33h-5.46Z"/><path class="d" d="M194.99,383.5h29.86v4.54h-35.11v-49.65h34.05v4.54h-28.8v40.57Zm-.57-22.91h26.24v4.47h-26.24v-4.47Z"/><path class="d" d="M242.51,388.04v-49.65h5.25v45.11h27.8v4.54h-33.05Z"/><path class="d" d="M327.2,388.46c-3.69,0-7.22-.6-10.6-1.81-3.38-1.21-5.99-2.75-7.84-4.65l2.06-4.04c1.75,1.7,4.1,3.13,7.06,4.29,2.95,1.16,6.06,1.74,9.33,1.74s5.66-.39,7.62-1.17c1.96-.78,3.4-1.83,4.33-3.16,.92-1.32,1.38-2.79,1.38-4.4,0-1.94-.56-3.5-1.67-4.68-1.11-1.18-2.57-2.12-4.36-2.8-1.8-.68-3.78-1.29-5.96-1.81-2.18-.52-4.35-1.08-6.53-1.67-2.18-.59-4.17-1.38-5.99-2.38-1.82-.99-3.29-2.3-4.4-3.94-1.11-1.63-1.67-3.77-1.67-6.42,0-2.46,.65-4.72,1.95-6.77,1.3-2.06,3.3-3.71,5.99-4.96,2.7-1.25,6.15-1.88,10.36-1.88,2.79,0,5.56,.39,8.3,1.17,2.74,.78,5.11,1.86,7.09,3.23l-1.77,4.18c-2.13-1.42-4.39-2.46-6.77-3.12-2.39-.66-4.69-.99-6.92-.99-2.98,0-5.44,.4-7.38,1.21-1.94,.8-3.37,1.88-4.29,3.23s-1.38,2.87-1.38,4.58c0,1.94,.56,3.5,1.67,4.68,1.11,1.18,2.58,2.1,4.4,2.77,1.82,.66,3.82,1.25,5.99,1.77,2.17,.52,4.34,1.09,6.49,1.7,2.15,.62,4.14,1.41,5.96,2.38,1.82,.97,3.29,2.26,4.4,3.87,1.11,1.61,1.67,3.71,1.67,6.31,0,2.41-.66,4.65-1.99,6.7-1.32,2.06-3.35,3.71-6.06,4.96-2.72,1.25-6.21,1.88-10.46,1.88Z"/><path class="d" d="M362.45,388.04v-49.65h5.25v45.11h27.8v4.54h-33.05Z"/><path class="d" d="M428.63,388.46c-6.34,0-11.33-1.82-14.97-5.46-3.64-3.64-5.46-9.03-5.46-16.17v-28.44h5.25v28.23c0,5.86,1.32,10.19,3.97,12.98,2.65,2.79,6.38,4.18,11.21,4.18s8.63-1.39,11.28-4.18c2.65-2.79,3.97-7.12,3.97-12.98v-28.23h5.11v28.44c0,7.14-1.81,12.53-5.43,16.17-3.62,3.64-8.59,5.46-14.93,5.46Z"/><path class="d" d="M491.9,388.46c-3.78,0-7.27-.63-10.46-1.88-3.19-1.25-5.96-3.01-8.3-5.28s-4.16-4.94-5.46-8.02c-1.3-3.07-1.95-6.43-1.95-10.07s.65-7,1.95-10.07c1.3-3.07,3.13-5.75,5.5-8.02,2.36-2.27,5.14-4.03,8.33-5.28,3.19-1.25,6.68-1.88,10.46-1.88s7.25,.59,10.39,1.77c3.14,1.18,5.83,2.98,8.05,5.39l-3.26,3.33c-2.08-2.08-4.37-3.57-6.88-4.47-2.51-.9-5.2-1.35-8.09-1.35-3.07,0-5.9,.51-8.48,1.53-2.58,1.02-4.82,2.46-6.74,4.33-1.92,1.87-3.4,4.04-4.47,6.53-1.06,2.48-1.6,5.21-1.6,8.19s.53,5.65,1.6,8.16c1.06,2.51,2.55,4.69,4.47,6.56,1.92,1.87,4.16,3.31,6.74,4.33,2.58,1.02,5.38,1.53,8.41,1.53,2.84,0,5.52-.43,8.05-1.28,2.53-.85,4.86-2.29,6.99-4.33l2.98,3.97c-2.37,2.08-5.13,3.65-8.3,4.72-3.17,1.06-6.48,1.6-9.93,1.6Zm13.19-6.95v-18.3h5.04v18.94l-5.04-.64Z"/><path class="d" d="M551.98,388.46c-3.74,0-7.2-.63-10.39-1.88-3.19-1.25-5.96-3.03-8.3-5.32-2.34-2.29-4.16-4.97-5.46-8.02s-1.95-6.39-1.95-10.04,.65-6.99,1.95-10.04,3.12-5.72,5.46-8.01,5.09-4.07,8.26-5.32c3.17-1.25,6.64-1.88,10.43-1.88s7.19,.63,10.36,1.88c3.17,1.25,5.92,3.01,8.26,5.28s4.16,4.94,5.46,8.02c1.3,3.07,1.95,6.43,1.95,10.07s-.65,7-1.95,10.07c-1.3,3.08-3.12,5.75-5.46,8.02s-5.1,4.03-8.26,5.28c-3.17,1.25-6.62,1.88-10.36,1.88Zm0-4.68c2.98,0,5.73-.51,8.26-1.53,2.53-1.02,4.73-2.46,6.6-4.33,1.87-1.87,3.32-4.04,4.36-6.53,1.04-2.48,1.56-5.21,1.56-8.19s-.52-5.71-1.56-8.19c-1.04-2.48-2.49-4.66-4.36-6.53-1.87-1.87-4.07-3.31-6.6-4.33-2.53-1.02-5.28-1.53-8.26-1.53s-5.75,.51-8.3,1.53c-2.55,1.02-4.76,2.46-6.63,4.33s-3.33,4.04-4.4,6.53c-1.06,2.48-1.6,5.21-1.6,8.19s.53,5.65,1.6,8.16c1.06,2.51,2.53,4.69,4.4,6.56,1.87,1.87,4.08,3.31,6.63,4.33,2.55,1.02,5.32,1.53,8.3,1.53Z"/><path class="d" d="M616.66,388.46c-3.74,0-7.19-.63-10.36-1.88-3.17-1.25-5.91-3.01-8.23-5.28-2.32-2.27-4.13-4.94-5.43-8.02-1.3-3.07-1.95-6.43-1.95-10.07s.65-7,1.95-10.07c1.3-3.07,3.12-5.75,5.46-8.02s5.09-4.03,8.26-5.28c3.17-1.25,6.62-1.88,10.36-1.88s6.97,.6,10.14,1.81c3.17,1.21,5.84,3.01,8.01,5.43l-3.33,3.33c-2.03-2.08-4.28-3.58-6.74-4.5-2.46-.92-5.11-1.38-7.94-1.38-2.98,0-5.75,.51-8.3,1.53-2.55,1.02-4.78,2.46-6.67,4.33-1.89,1.87-3.37,4.04-4.43,6.53-1.06,2.48-1.6,5.21-1.6,8.19s.53,5.71,1.6,8.19c1.06,2.48,2.54,4.66,4.43,6.53,1.89,1.87,4.11,3.31,6.67,4.33,2.55,1.02,5.32,1.53,8.3,1.53s5.49-.47,7.94-1.42c2.46-.95,4.71-2.46,6.74-4.54l3.33,3.33c-2.18,2.41-4.85,4.23-8.01,5.46-3.17,1.23-6.57,1.84-10.21,1.84Z"/><path class="d" d="M651.42,388.04v-49.65h5.25v49.65h-5.25Zm4.54-12.34l-.21-6.38,30.07-30.93h6.03l-21.92,22.98-2.98,3.19-10.99,11.14Zm31.14,12.34l-21.42-24.68,3.55-3.83,24.12,28.51h-6.24Z"/><path class="d" d="M707.17,388.04v-49.65h5.25v49.65h-5.25Z"/></g><g><path class="d" d="M119.58,466.93h-1.97v-27.08h18.11v1.78h-16.13v25.3Zm-.23-13.73h14.66v1.78h-14.66v-1.78Z"/><path class="d" d="M156.49,467.12c-3.35,0-6-.98-7.93-2.94-1.93-1.96-2.9-4.88-2.9-8.74v-15.59h1.97v15.51c0,3.38,.77,5.88,2.32,7.51,1.55,1.62,3.74,2.44,6.58,2.44s4.99-.81,6.54-2.44c1.55-1.62,2.32-4.13,2.32-7.51v-15.51h1.97v15.59c0,3.87-.97,6.78-2.9,8.74-1.93,1.96-4.59,2.94-7.97,2.94Z"/><path class="d" d="M180.43,466.93v-27.08h1.97v25.3h15.59v1.78h-17.56Z"/><path class="d" d="M206.94,466.93v-27.08h1.97v25.3h15.59v1.78h-17.56Z"/><path class="d" d="M240.21,467.12c-2.01,0-3.91-.34-5.71-1.03-1.79-.68-3.18-1.57-4.16-2.65l.89-1.47c.93,.95,2.2,1.76,3.81,2.42,1.61,.66,3.32,.99,5.13,.99s3.28-.24,4.43-.72c1.15-.48,2-1.12,2.55-1.92,.55-.8,.83-1.69,.83-2.67,0-1.16-.31-2.09-.93-2.79s-1.43-1.25-2.44-1.66c-1.01-.41-2.1-.76-3.29-1.04-1.19-.28-2.39-.59-3.6-.91-1.21-.32-2.32-.74-3.33-1.26-1.01-.52-1.81-1.22-2.42-2.11-.61-.89-.91-2.04-.91-3.46,0-1.29,.33-2.48,1.01-3.56,.67-1.08,1.71-1.96,3.13-2.63,1.42-.67,3.24-1.01,5.46-1.01,1.5,0,2.97,.22,4.43,.66,1.46,.44,2.7,1.03,3.73,1.78l-.74,1.59c-1.14-.77-2.35-1.35-3.66-1.72-1.3-.37-2.56-.56-3.77-.56-1.73,0-3.16,.25-4.29,.74-1.14,.49-1.97,1.14-2.52,1.95-.54,.81-.81,1.72-.81,2.73,0,1.16,.3,2.09,.91,2.79,.61,.7,1.41,1.25,2.42,1.66,1.01,.41,2.11,.76,3.33,1.04,1.21,.28,2.41,.59,3.6,.91,1.19,.32,2.28,.74,3.29,1.26,1.01,.52,1.82,1.21,2.44,2.09,.62,.88,.93,2.01,.93,3.41,0,1.26-.35,2.44-1.04,3.54-.7,1.1-1.76,1.97-3.19,2.63-1.43,.66-3.27,.99-5.51,.99Z"/><path class="d" d="M265.32,466.93v-25.3h-9.75v-1.78h21.47v1.78h-9.75v25.3h-1.97Z"/><path class="d" d="M279.9,466.93l12.46-27.08h1.97l12.46,27.08h-2.13l-11.76-25.84h.85l-11.72,25.84h-2.13Zm4.57-7.62l.66-1.66h16.21l.66,1.66h-17.53Z"/><path class="d" d="M326.64,467.12c-2.01,0-3.88-.34-5.59-1.03-1.72-.68-3.21-1.64-4.47-2.88-1.26-1.24-2.24-2.69-2.94-4.35-.7-1.66-1.04-3.49-1.04-5.47s.35-3.81,1.04-5.47c.7-1.66,1.68-3.11,2.96-4.35s2.77-2.2,4.47-2.88c1.7-.68,3.56-1.03,5.57-1.03s3.69,.31,5.36,.93c1.66,.62,3.09,1.56,4.27,2.82l-1.24,1.28c-1.16-1.13-2.44-1.95-3.85-2.46-1.41-.5-2.9-.75-4.47-.75-1.73,0-3.33,.3-4.82,.89-1.48,.59-2.77,1.43-3.87,2.51-1.1,1.08-1.95,2.35-2.55,3.79-.61,1.45-.91,3.02-.91,4.72s.3,3.28,.91,4.72c.61,1.45,1.46,2.71,2.55,3.79,1.1,1.08,2.39,1.92,3.87,2.51,1.48,.59,3.09,.89,4.82,.89,1.57,0,3.06-.25,4.47-.75,1.41-.5,2.69-1.33,3.85-2.5l1.24,1.28c-1.19,1.26-2.61,2.21-4.27,2.84-1.66,.63-3.45,.95-5.36,.95Z"/><path class="d" d="M346.76,466.93v-27.08h1.97v27.08h-1.97Zm1.7-6.85l-.08-2.48,17.26-17.76h2.4l-12.07,12.5-1.12,1.2-6.38,6.54Zm17.99,6.85l-12.19-13.93,1.35-1.43,13.23,15.36h-2.4Z"/><path class="d" d="M397.67,466.93l-9.21-27.08h2.09l8.74,25.88h-1.04l9.01-25.88h1.9l8.94,25.88h-1.01l8.82-25.88h1.93l-9.17,27.08h-2.09l-8.67-25.03h.5l-8.67,25.03h-2.09Z"/><path class="d" d="M439.38,465.15h16.71v1.78h-18.69v-27.08h18.11v1.78h-16.13v23.52Zm-.23-12.85h14.66v1.74h-14.66v-1.74Z"/><path class="d" d="M467.16,466.93v-27.08h11.3c2.91,0,5.2,.59,6.85,1.78s2.48,2.9,2.48,5.15c0,1.47-.35,2.71-1.04,3.71s-1.66,1.76-2.88,2.26c-1.22,.5-2.6,.75-4.12,.75l.7-.77c1.86,0,3.44,.27,4.76,.81,1.32,.54,2.32,1.33,3,2.36,.68,1.03,1.03,2.32,1.03,3.87,0,2.27-.83,4.03-2.48,5.28-1.65,1.25-4.15,1.88-7.51,1.88h-12.07Zm1.97-1.7h10.1c2.61,0,4.59-.45,5.96-1.33s2.05-2.31,2.05-4.28-.68-3.35-2.05-4.24-3.35-1.33-5.96-1.33h-10.33v-1.7h9.48c2.35,0,4.17-.45,5.46-1.35,1.29-.9,1.93-2.26,1.93-4.06s-.65-3.12-1.93-4.02c-1.29-.9-3.11-1.35-5.46-1.35h-9.25v23.68Z"/><path class="d" d="M513.93,466.93v-27.08h10.72c2.86,0,5.38,.58,7.54,1.74,2.17,1.16,3.85,2.76,5.05,4.8,1.2,2.04,1.8,4.37,1.8,7s-.6,4.96-1.8,7c-1.2,2.04-2.88,3.64-5.05,4.8-2.17,1.16-4.68,1.74-7.54,1.74h-10.72Zm1.97-1.78h8.59c2.55,0,4.77-.5,6.65-1.51,1.88-1.01,3.34-2.39,4.37-4.16,1.03-1.77,1.55-3.8,1.55-6.09s-.52-4.33-1.55-6.09c-1.03-1.77-2.49-3.15-4.37-4.16s-4.1-1.51-6.65-1.51h-8.59v23.52Z"/><path class="d" d="M551.73,465.15h16.71v1.78h-18.69v-27.08h18.11v1.78h-16.13v23.52Zm-.23-12.85h14.66v1.74h-14.66v-1.74Z"/><path class="d" d="M586.71,466.93l-12.07-27.08h2.17l11.53,25.88h-1.2l11.57-25.88h2.05l-12.07,27.08h-1.97Z"/></g><g><path class="d" d="M358.19,49.56c4.8,3.93,8.73,8.41,11.79,13.43,3.05,5.02,5.09,10.66,6.11,16.92,.5,3.2,.62,6.37,.33,9.5-.3,3.13-.84,6.22-1.64,9.28-1.24,5.09-3.04,9.94-5.41,14.52-2.36,4.58-5.14,8.95-8.35,13.1-4.22,5.38-8.94,10.19-14.14,14.41-5.21,4.22-10.76,8.04-16.65,11.46-12.45,7.28-25.51,13.21-39.19,17.8-.94,.36-1.93,.73-2.95,1.09-1.39,.44-2.37,.82-2.95,1.15-.59,.33-.95,.82-1.1,1.47s-.21,1.67-.21,3.06c0,17.25-.04,34.46-.11,51.64v6.99c0,1.24-.02,2.46-.05,3.66-.04,1.2-.24,2.38-.6,3.55-.51,1.96-1.71,2.91-3.6,2.84-1.68-.08-2.76-.91-3.27-2.51-.65-2.62-.94-5.31-.88-8.08v-53.6c.22-1.75,.04-3.64-.54-5.68-1.02,.07-1.93,.26-2.73,.54-1.31,.37-2.58,.44-3.82,.22-.43-.07-.84-.2-1.2-.38-.37-.18-.59-.53-.65-1.04,0-1.02,.43-1.68,1.31-1.96,1.74-.73,3.53-1.35,5.35-1.86,1.6-.58,2.37-1.71,2.29-3.38v-31.33c.08-19.51,.11-39.05,.11-58.63v-.77c0-1.45,.03-2.87,.11-4.26,.22-2.55,1.6-3.82,4.15-3.82,2.47,.07,3.82,1.38,4.04,3.93,.08,1.24,.08,2.47,0,3.71v19.54c.08,21.18,.11,42.36,.11,63.54v1.64c-.15,1.75,0,3.46,.43,5.13,.43,.37,.86,.51,1.25,.44,.4-.07,.79-.18,1.15-.33,10.19-3.78,19.96-8.3,29.31-13.54,9.36-5.24,18.11-11.43,26.26-18.56,10.55-9.24,18.02-20.6,22.38-34.06,2.25-7.42,2.9-14.32,1.91-20.69-.98-6.37-3.24-12.08-6.77-17.14-3.53-5.06-7.99-9.37-13.38-12.94-9.32-6.11-20.4-9.9-33.24-11.36-12.85-1.45-26.32-.98-40.4,1.42-14.09,2.4-27.68,6.3-40.78,11.68-13.1,5.39-24.58,11.86-34.45,19.43-9.86,7.57-17.01,15.76-21.45,24.56-1.02,1.75-1.75,3.57-2.19,5.46s-.4,3.89,.11,6c.29,1.16,.13,2.04-.49,2.62s-1.51,.8-2.68,.65c-2.32-.36-3.93-1.6-4.8-3.71-.73-1.82-.88-3.67-.44-5.57,.8-3.78,2.29-7.24,4.48-10.37,7.06-10.26,16.87-19.38,29.42-27.35,12.56-7.97,26.48-14.5,41.76-19.6,15.28-5.09,30.57-8.39,45.86-9.88,15.28-1.49,29.15-.86,41.59,1.91,5.46,1.24,10.65,3,15.56,5.29s9.55,5.22,13.92,8.79Z"/><path class="d" d="M444.73,171.2c1.39-.46,4.92-1.5,5.16-1.72,2.8-2.59-15.14-12.47-17.77-13.99-7.23-4.26-14.5-8.49-21.8-12.68-3.04-1.76-6.08-3.55-9.13-5.38-10.55-6.08-20.69-12.78-30.43-20.08-6.02-4.46-11.46-9.53-16.33-15.21-2.36-2.91-4.36-6.05-5.99-9.43-3.45-7.24-3.79-14.68-1.01-22.32,1.42-3.92,3.31-7.56,5.68-10.9,2.37-3.35,4.97-6.51,7.81-9.48,6.35-6.56,13.39-12.17,21.1-16.84,12.78-7.85,26.27-14.13,40.47-18.87,17.72-5.95,35.84-10.18,54.37-12.68,6.42-.88,12.87-1.4,19.32-1.57,6.46-.17,12.9,.25,19.32,1.27,3.86,.54,7.59,1.35,11.21,2.43,3.62,1.08,7.08,2.64,10.4,4.67,2.02,1.28,3.92,2.71,5.68,4.26,9,8.25,11.67,18.22,8.02,29.92-.67,2.03-1.52,3.99-2.53,5.88-1.9,3.38-4.04,6.56-6.44,9.54-2.4,2.98-4.96,5.82-7.66,8.52-1.83,1.9-3.95,2.54-6.39,1.93-.68-.07-1.12-.4-1.32-1.01-.13-.61,.04-1.12,.51-1.52,4.39-4.26,8.25-8.96,11.56-14.1,2.37-3.45,4.1-7.17,5.18-11.16,2.63-10.82-.34-19.75-8.93-26.78-4.06-3.18-8.59-5.41-13.59-6.69-4.73-1.28-9.48-2.11-14.25-2.49-4.77-.37-9.55-.39-14.35-.05-7.37,.41-14.68,1.25-21.91,2.54-7.24,1.28-14.44,2.81-21.61,4.56-9.33,2.3-18.49,5.12-27.49,8.47-8.99,3.35-17.72,7.32-26.17,11.92-8.18,4.39-15.76,9.67-22.72,15.82-6.22,5.48-11.33,11.87-15.32,19.17-5.14,9.74-4.7,19.2,1.32,28.4,3.79,5.55,8.31,10.45,13.59,14.71,8.18,6.76,16.8,12.85,25.86,18.26,7.65,4.6,15.29,9.13,22.93,13.59,5.07,2.91,10.11,5.85,15.11,8.83,3.59,2.09,7.1,4.26,10.55,6.49,3.45,2.23,6.8,4.63,10.04,7.2,1.97,1.62,4.13,2.03,6.49,1.22,8.11-2.37,16.36-4.06,24.75-5.07,.27,0,.54-.03,.81-.1,1.9-.34,3.76-.34,5.58,0,.47,.13,.88,.35,1.22,.66,.33,.3,.5,.76,.5,1.37s-.18,1.06-.56,1.37-.8,.46-1.27,.46c-2.91,.07-5.75,.37-8.52,.91-2.77,.54-5.51,1.15-8.21,1.83-2.16,.54-4.29,1.02-6.39,1.42l-.81,.2c-1.02,.13-2.01,.37-3,.71-.79,.27-1.45,.68-2.15,1.13-.11,.07-.23,.15-.27,.28-.06,.19,.09,.39,.22,.54,3.87,4.25,7.21,9.01,9.47,14.29,2.61,6.08,3.85,12.92,2.42,19.44-1.19,5.45-3.92,10.45-7.52,14.69-1.68,1.97-3.53,3.79-5.51,5.46-9.09,7.67-19.33,11.6-28.56,11.6-7.21,0-13.81-2.41-18.72-7.33-5.75-5.74-8.79-14-8.35-22.66,.49-9.67,6.65-19.72,14.83-25.82,7.27-5.42,15.74-8.12,21.48-10.01Zm-18.96,14.81c-10,8.17-14.9,22.39-8.12,34.11,1.61,2.79,3.79,5.25,6.42,7.12,5.75,4.07,13.3,5.18,20.18,3.71,12.36-2.63,24.41-13.37,26.88-26.02,.2-1.04,.34-2.09,.41-3.15,.31-4.63-.65-9.3-2.45-13.58-1.8-4.28-4.43-8.17-7.46-11.68-.96-1.1-1.97-2.19-3.22-2.95-2.81-1.71-5.88-.65-8.71,.43-8.55,3.25-16.8,6.16-23.93,12.01Z"/></g></g></g></svg>