<?xml version="1.0" encoding="UTF-8"?><svg xmlns="http://www.w3.org/2000/svg" viewBox="0 0 387.01 245.42"><defs><style>.d{fill:#1d1d1b;}</style></defs><g id="a"/><g id="b"><g id="c"><g><path class="d" d="M192.83,49.56c4.8,3.93,8.73,8.41,11.79,13.43,3.05,5.02,5.09,10.66,6.11,16.92,.5,3.2,.62,6.37,.33,9.5-.3,3.13-.84,6.22-1.64,9.28-1.24,5.09-3.04,9.94-5.41,14.52-2.36,4.58-5.14,8.95-8.35,13.1-4.22,5.38-8.94,10.19-14.14,14.41-5.21,4.22-10.76,8.04-16.65,11.46-12.45,7.28-25.51,13.21-39.19,17.8-.94,.36-1.93,.73-2.95,1.09-1.39,.44-2.37,.82-2.95,1.15-.59,.33-.95,.82-1.1,1.47s-.21,1.67-.21,3.06c0,17.25-.04,34.46-.11,51.64v6.99c0,1.24-.02,2.46-.05,3.66-.04,1.2-.24,2.38-.6,3.55-.51,1.96-1.71,2.91-3.6,2.84-1.68-.08-2.76-.91-3.27-2.51-.65-2.62-.94-5.31-.88-8.08v-53.6c.22-1.75,.04-3.64-.54-5.68-1.02,.07-1.93,.26-2.73,.54-1.31,.37-2.58,.44-3.82,.22-.43-.07-.84-.2-1.2-.38-.37-.18-.59-.53-.65-1.04,0-1.02,.43-1.68,1.31-1.96,1.74-.73,3.53-1.35,5.35-1.86,1.6-.58,2.37-1.71,2.29-3.38v-31.33c.08-19.51,.11-39.05,.11-58.63v-.77c0-1.45,.03-2.87,.11-4.26,.22-2.55,1.6-3.82,4.15-3.82,2.47,.07,3.82,1.38,4.04,3.93,.08,1.24,.08,2.47,0,3.71v19.54c.08,21.18,.11,42.36,.11,63.54v1.64c-.15,1.75,0,3.46,.43,5.13,.43,.37,.86,.51,1.25,.44,.4-.07,.79-.18,1.15-.33,10.19-3.78,19.96-8.3,29.31-13.54,9.36-5.24,18.11-11.43,26.26-18.56,10.55-9.24,18.02-20.6,22.38-34.06,2.25-7.42,2.9-14.32,1.91-20.69-.98-6.37-3.24-12.08-6.77-17.14-3.53-5.06-7.99-9.37-13.38-12.94-9.32-6.11-20.4-9.9-33.24-11.36-12.85-1.45-26.32-.98-40.4,1.42-14.09,2.4-27.68,6.3-40.78,11.68-13.1,5.39-24.58,11.86-34.45,19.43-9.86,7.57-17.01,15.76-21.45,24.56-1.02,1.75-1.75,3.57-2.19,5.46s-.4,3.89,.11,6c.29,1.16,.13,2.04-.49,2.62s-1.51,.8-2.68,.65c-2.32-.36-3.93-1.6-4.8-3.71-.73-1.82-.88-3.67-.44-5.57,.8-3.78,2.29-7.24,4.48-10.37,7.06-10.26,16.87-19.38,29.42-27.35,12.56-7.97,26.48-14.5,41.76-19.6,15.28-5.09,30.57-8.39,45.86-9.88,15.28-1.49,29.15-.86,41.59,1.91,5.46,1.24,10.65,3,15.56,5.29s9.55,5.22,13.92,8.79Z"/><path class="d" d="M279.37,171.2c1.39-.46,4.92-1.5,5.16-1.72,2.8-2.59-15.14-12.47-17.77-13.99-7.23-4.26-14.5-8.49-21.8-12.68-3.04-1.76-6.08-3.55-9.13-5.38-10.55-6.08-20.69-12.78-30.43-20.08-6.02-4.46-11.46-9.53-16.33-15.21-2.36-2.91-4.36-6.05-5.99-9.43-3.45-7.24-3.79-14.68-1.01-22.32,1.42-3.92,3.31-7.56,5.68-10.9,2.37-3.35,4.97-6.51,7.81-9.48,6.35-6.56,13.39-12.17,21.1-16.84,12.78-7.85,26.27-14.13,40.47-18.87,17.72-5.95,35.84-10.18,54.37-12.68,6.42-.88,12.87-1.4,19.32-1.57,6.46-.17,12.9,.25,19.32,1.27,3.86,.54,7.59,1.35,11.21,2.43,3.62,1.08,7.08,2.64,10.4,4.67,2.02,1.28,3.92,2.71,5.68,4.26,9,8.25,11.67,18.22,8.02,29.92-.67,2.03-1.52,3.99-2.53,5.88-1.9,3.38-4.04,6.56-6.44,9.54-2.4,2.98-4.96,5.82-7.66,8.52-1.83,1.9-3.95,2.54-6.39,1.93-.68-.07-1.12-.4-1.32-1.01-.13-.61,.04-1.12,.51-1.52,4.39-4.26,8.25-8.96,11.56-14.1,2.37-3.45,4.1-7.17,5.18-11.16,2.63-10.82-.34-19.75-8.93-26.78-4.06-3.18-8.59-5.41-13.59-6.69-4.73-1.28-9.48-2.11-14.25-2.49-4.77-.37-9.55-.39-14.35-.05-7.37,.41-14.68,1.25-21.91,2.54-7.24,1.28-14.44,2.81-21.61,4.56-9.33,2.3-18.49,5.12-27.49,8.47-8.99,3.35-17.72,7.32-26.17,11.92-8.18,4.39-15.76,9.67-22.72,15.82-6.22,5.48-11.33,11.87-15.32,19.17-5.14,9.74-4.7,19.2,1.32,28.4,3.79,5.55,8.31,10.45,13.59,14.71,8.18,6.76,16.8,12.85,25.86,18.26,7.65,4.6,15.29,9.13,22.93,13.59,5.07,2.91,10.11,5.85,15.11,8.83,3.59,2.09,7.1,4.26,10.55,6.49,3.45,2.23,6.8,4.63,10.04,7.2,1.97,1.62,4.13,2.03,6.49,1.22,8.11-2.37,16.36-4.06,24.75-5.07,.27,0,.54-.03,.81-.1,1.9-.34,3.76-.34,5.58,0,.47,.13,.88,.35,1.22,.66,.33,.3,.5,.76,.5,1.37s-.18,1.06-.56,1.37-.8,.46-1.27,.46c-2.91,.07-5.75,.37-8.52,.91-2.77,.54-5.51,1.15-8.21,1.83-2.16,.54-4.29,1.02-6.39,1.42l-.81,.2c-1.02,.13-2.01,.37-3,.71-.79,.27-1.45,.68-2.15,1.13-.11,.07-.23,.15-.27,.28-.06,.19,.09,.39,.22,.54,3.87,4.25,7.21,9.01,9.47,14.29,2.61,6.08,3.85,12.92,2.42,19.44-1.19,5.45-3.92,10.45-7.52,14.69-1.68,1.97-3.53,3.79-5.51,5.46-9.09,7.67-19.33,11.6-28.56,11.6-7.21,0-13.81-2.41-18.72-7.33-5.75-5.74-8.79-14-8.35-22.66,.49-9.67,6.65-19.72,14.83-25.82,7.27-5.42,15.74-8.12,21.48-10.01Zm-18.96,14.81c-10,8.17-14.9,22.39-8.12,34.11,1.61,2.79,3.79,5.25,6.42,7.12,5.75,4.07,13.3,5.18,20.18,3.71,12.36-2.63,24.41-13.37,26.88-26.02,.2-1.04,.34-2.09,.41-3.15,.31-4.63-.65-9.3-2.45-13.58-1.8-4.28-4.43-8.17-7.46-11.68-.96-1.1-1.97-2.19-3.22-2.95-2.81-1.71-5.88-.65-8.71,.43-8.55,3.25-16.8,6.16-23.93,12.01Z"/></g></g></g></svg>